<?xml version="1.0" encoding="utf-8"?>
<!-- Generator: Adobe Illustrator 19.0.0, SVG Export Plug-In . SVG Version: 6.00 Build 0)  -->
<svg version="1.1" id="Layer_1" xmlns="http://www.w3.org/2000/svg" xmlns:xlink="http://www.w3.org/1999/xlink" x="0px" y="0px"
	 viewBox="-254 353.9 101.1 87.1" style="enable-background:new -254 353.9 101.1 87.1;" xml:space="preserve">
<style type="text/css">
	.st0{fill:#CED500;}
</style>
<g id="XMLID_1229_">
	<path id="XMLID_1245_" class="st0" d="M-481.8,758.5c3.4-0.5,6.9-0.9,10.3-1.4c2.9-0.5,5.7-1,8.5-1.7c4.5-1.2,9-2.5,13.4-3.9
		c5.2-1.7,10.2-3.8,14.9-6.6c3-1.7,5.8-3.5,8-6.3c1-1.3,1.7-2.7,1.3-4.4c-0.4-1.6-1.7-2.4-3.1-3.1c-2.1-1-4.3-1.5-6.6-1.8
		c-1.9-0.3-3.7-0.4-5.6-0.6c-0.1,0-0.2,0-0.3,0.1c0.2,1.3,0.4,2.7,0.5,4c0.2,5.1-1.4,9.5-5,13.1c-2.8,2.9-6.2,4.6-10.2,5
		c-7.6,0.8-13.4-2.2-17.5-8.6c-0.1-0.2-0.5-0.5-0.8-0.4c-2.7,0.1-5.4,0.3-8.1,0.4c-2.4,0.1-4.7,0.1-7.1,0c-4.2-0.2-8.5-0.6-12.5-2
		c-1.6-0.6-3.1-1.3-4.3-2.4c-2.1-1.9-2.6-4.5-1.5-7.2c1-2.4,2.6-4.3,4.6-5.9c5.9-4.9,12.8-7.9,20-10.4c5.4-1.9,10.9-3.3,16.4-4.4
		c3.4-0.6,6.8-1.1,10.3-1.4c2.5-0.3,5.1-0.4,7.6-0.5c3-0.1,6-0.1,9,0c2,0.1,4,0.4,6.2,0.6c-5.6,0.2-10.9,1-16.2,2.1
		c-9.4,2.1-18.3,5.2-26.9,9.5c-3.6,1.8-7,3.8-10.1,6.4c-1.5,1.3-2.9,2.6-3.7,4.4c-0.9,2.1-0.4,4,1.5,5.3c2.1,1.4,4.4,2.1,6.8,2.6
		c2.2,0.4,4.4,0.7,6.6,1c0.3,0,0.6,0,0.8,0c-0.3-1.3-0.6-2.4-0.8-3.6c-0.8-5.5,0.6-10.4,4.4-14.6c2.6-2.9,5.9-4.7,9.7-5.3
		c7.1-1.1,13,1.1,17.4,7c0.7,1,1.3,2,1.8,3.1c0.3,0.6,0.6,0.7,1.2,0.7c4.6-0.2,9.1-0.5,13.7-0.4c4.6,0.1,9.3,0.5,13.7,2.2
		c1.9,0.7,3.7,1.6,5,3.3c1.4,1.7,1.8,3.7,1.3,5.9c-0.8,3.8-3.3,6.4-6.2,8.5c-2.3,1.7-4.8,3.1-7.4,4.4c-4.4,2.2-9.1,3.8-13.9,5
		c-4.1,1-8.2,1.9-12.3,2.7c-2.6,0.5-5.2,0.7-7.9,1c-4.4,0.5-8.9,0.7-13.4,0.6s-9-0.5-13.5-1.6c-0.1,0-0.2-0.1-0.3-0.1
		C-481.9,758.4-481.9,758.4-481.8,758.5z"/>
	<path id="XMLID_1242_" class="st0" d="M-471.6,794.3c-1.1,0-1.9,0-2.8,0c-0.6,0-0.7-0.2-0.7-0.7c0-1.9,0-3.8,0-5.7
		c0-7.4,0-14.9,0-22.3c0-0.2,0-0.4,0-0.6c2.2,0,4.4,0,6.6,0c0.8,0,1.6,0.1,2.4,0.6c0.9,0.6,1.4,1.3,1.5,2.2c0.1,2.5,0.1,4.9,0.2,7.4
		c0,0.6-0.1,1.2-0.2,1.8c-0.2,1.2-0.8,2-2.1,2.2c-0.1,0-0.2,0.1-0.4,0.2c2.2,0.8,2.7,2.5,2.7,4.4c0,1.6,0,3.2,0,4.8
		c0.1,1.8,0.2,3.7,0.4,5.6c-0.9,0-1.9,0-2.9,0c-0.2,0-0.5-0.3-0.5-0.5c-0.2-0.8-0.3-1.5-0.3-2.3c0-2.3,0-4.6,0-6.9
		c0-0.8-0.2-1.7-0.4-2.5c-0.3-1.1-0.8-1.4-1.9-1.4c-0.4,0-0.9,0-1.5,0C-471.6,785.3-471.6,789.8-471.6,794.3z M-471.7,773
		c0,1.3,0,2.5,0,3.8c0,0.6,0.1,0.9,0.8,0.8c0.4,0,0.9,0,1.3,0.1c1,0.1,1.4-0.2,1.5-1c0.1-0.6,0.2-1.2,0.2-1.9c0-1.7-0.1-3.5-0.1-5.2
		c0-0.6-0.3-1-0.8-1.1c-0.7-0.1-1.4-0.1-2.1-0.2c-0.6,0-0.8,0.2-0.8,0.8C-471.6,770.4-471.6,771.7-471.7,773z"/>
	<path id="XMLID_1239_" class="st0" d="M-424.4,779.8c0,3.2,0,6.4,0,9.5c-0.1,2.7-1.4,4.7-4.2,5.3c-3.9,0.9-6.4-1.3-7.1-4.7
		c-0.1-0.6-0.2-1.2-0.2-1.8c0-5.7,0-11.4,0-17c0-1.8,0.3-3.6,1.6-5c1.7-1.7,3.7-2,6-1.4c2.2,0.5,3.2,2.1,3.7,4.2
		c0.1,0.7,0.2,1.4,0.2,2.1C-424.3,774.1-424.3,776.9-424.4,779.8C-424.3,779.8-424.3,779.8-424.4,779.8z M-427.7,776
		c-0.1,0-0.1,0-0.2,0c0-2.2,0-4.4,0-6.5c0-0.9-0.8-1.6-1.7-1.8c-1-0.2-1.9,0.2-2.4,0.9c-0.6,0.9-0.4,1.8-0.4,2.8
		c0,5.8-0.1,11.5-0.1,17.3c0,0.5,0,0.9,0.1,1.4c0.2,1.2,1.6,1.9,2.7,1.6c1.4-0.4,2.1-1.2,2.1-2.7c0-2.6-0.1-5.1-0.1-7.7
		C-427.7,779.6-427.7,777.8-427.7,776z"/>
	<path id="XMLID_1236_" class="st0" d="M-450.6,794.3c-1,0-1.9,0-2.8,0c-0.2,0-0.5-0.3-0.6-0.5c-0.2-1.4-0.4-2.7-0.5-4.1
		c-0.1-0.6-0.3-0.9-0.9-0.8c-1.2,0-2.4,0-3.6,0c-0.2,1.8-0.5,3.6-0.7,5.5c-1.1,0-2.1,0-3.3,0c0.2-1.2,0.3-2.5,0.5-3.7
		c0.4-2.7,0.8-5.5,1.2-8.2c0.4-2.7,0.8-5.5,1.2-8.2c0.4-2.8,0.8-5.6,1.2-8.4c0.1-0.5,0.2-0.7,0.7-0.7c1.2,0,2.4,0,3.6,0
		C-453.3,774.9-452,784.6-450.6,794.3z M-456.8,770.9c-0.1,0-0.2,0-0.3,0c-0.5,4.8-1.1,9.6-1.6,14.4c1.3,0,2.4,0,3.7,0
		C-455.6,780.4-456.2,775.6-456.8,770.9z"/>
	<path id="XMLID_1233_" class="st0" d="M-477,794.3c-1.1,0-2.1,0-3.3,0c-0.2-1.2-0.4-2.3-0.5-3.5c-0.2-2-0.1-2-2.1-2
		c-0.8,0-1.6,0-2.5,0c-0.2,1.8-0.5,3.6-0.7,5.5c-1.1,0-2.1,0-3.3,0c0.2-1.5,0.4-3,0.6-4.5c0.4-3.2,0.9-6.3,1.4-9.5
		c0.6-3.9,1.1-7.8,1.7-11.6c0.1-1,0.3-1.9,0.3-2.9c0-0.5,0.2-0.7,0.7-0.7c1,0,2,0,3.1,0c0.4,0,0.6,0.2,0.7,0.6
		c0.5,3.6,1,7.3,1.5,10.9c0.4,3.2,0.9,6.4,1.4,9.6C-477.7,788.9-477.3,791.6-477,794.3z M-483.1,770.8c-0.1,0-0.2,0-0.2,0
		c-0.1,0.6-0.1,1.2-0.2,1.9c-0.2,2-0.4,4.1-0.7,6.1c-0.2,2-0.5,4-0.7,6c-0.1,0.5,0.1,0.7,0.6,0.7c1,0,2,0,3.1,0
		C-481.9,780.4-482.5,775.6-483.1,770.8z"/>
	<path id="XMLID_1232_" class="st0" d="M-441.1,785.5c1.2,0,2.2,0,3.4,0c0,1.1,0,2.1,0,3.2c0.1,1.2-0.2,2.3-0.8,3.3
		c-0.9,1.8-2.4,2.6-4.4,2.8c-4,0.4-6.4-2.7-6.4-6.2c0-6,0-11.9,0-17.9c0-2.7,1.6-5.2,3.9-5.9c4-1.2,7.4,0.8,7.7,5.4
		c0.1,1.2,0,2.4,0,3.6c-1.1,0-2.2,0-3.4,0c0-1.3,0-2.5,0-3.8c0-0.9-0.3-1.7-1.2-2.2c-0.8-0.4-1.7-0.5-2.4,0.1c-0.5,0.5-1,1.2-1,1.8
		c-0.1,6.3-0.1,12.7,0,19c0,2.1,1.1,3.1,3,2.7c1-0.2,1.7-1,1.7-2.1C-441.1,788.2-441.1,786.9-441.1,785.5z"/>
	<path id="XMLID_1231_" class="st0" d="M-493.5,785.5c1.1,0,2.2,0,3.2,0c0,0.1,0.1,0.1,0.1,0.1c-0.1,1.7,0.1,3.6-0.3,5.2
		c-0.7,2.8-2.7,4.1-5.6,4c-2.7-0.1-4.7-1.6-5.3-4.3c-0.3-1-0.2-2.2-0.2-3.3c0-4.9,0-9.7,0-14.6c0-1.4,0-2.8,0.3-4.1
		c0.6-2.6,2.8-4.2,5.5-4.1c2.7,0.1,4.5,1.3,5.3,4.1c0.5,1.7,0.5,3.5,0.2,5.2c-1.1,0-2.2,0-3.4,0c0-1.2,0-2.4,0-3.6
		c0-1.6-0.8-2.5-2.2-2.6c-1.5,0-2.4,0.9-2.4,2.5c0,6.1,0,12.1,0,18.2c0,0.5,0,1.1,0.1,1.6c0.2,1,1.3,1.8,2.4,1.7
		c1.3-0.1,2.1-0.9,2.1-2C-493.5,788.3-493.5,786.9-493.5,785.5z"/>
	<path id="XMLID_1230_" class="st0" d="M-418.7,765.1c0,8.7,0,17.2,0,25.8c2,0,4,0,6.1,0c0,1.2,0,2.2,0,3.4c-3.1,0-6.2,0-9.4,0
		c0-0.3,0-0.6,0-0.9c0-9.1,0-18.2,0-27.4c0-0.8,0.3-1,0.9-1C-420.3,765.1-419.6,765.1-418.7,765.1z"/>
</g>
<g id="XMLID_1_">
	<path id="XMLID_9_" class="st0" d="M-227.8,404.6c3.4-0.5,6.9-0.9,10.3-1.4c2.9-0.5,5.7-1,8.5-1.7c4.5-1.2,9-2.5,13.4-3.9
		c5.2-1.7,10.2-3.8,14.9-6.6c3-1.7,5.8-3.5,8-6.3c1-1.3,1.7-2.7,1.3-4.4c-0.4-1.6-1.7-2.4-3.1-3.1c-2.1-1-4.3-1.5-6.6-1.8
		c-1.9-0.3-3.7-0.4-5.6-0.6c-0.1,0-0.2,0-0.3,0.1c0.2,1.3,0.4,2.7,0.5,4c0.2,5.1-1.4,9.5-5,13.1c-2.8,2.9-6.2,4.6-10.2,5
		c-7.6,0.8-13.4-2.2-17.5-8.6c-0.1-0.2-0.5-0.5-0.8-0.4c-2.7,0.1-5.4,0.3-8.1,0.4c-2.4,0.1-4.7,0.1-7.1,0c-4.2-0.2-8.5-0.6-12.5-2
		c-1.6-0.6-3.1-1.3-4.3-2.4c-2.1-1.9-2.6-4.5-1.5-7.2c1-2.4,2.6-4.3,4.6-5.9c5.9-4.9,12.8-7.9,20-10.4c5.4-1.9,10.9-3.3,16.4-4.4
		c3.4-0.6,6.8-1.1,10.3-1.4c2.5-0.3,5.1-0.4,7.6-0.5c3-0.1,6-0.1,9,0c2,0.1,4,0.4,6.2,0.6c-5.6,0.2-10.9,1-16.2,2.1
		c-9.4,2.1-18.3,5.2-26.9,9.5c-3.6,1.8-7,3.8-10.1,6.4c-1.5,1.3-2.9,2.6-3.7,4.4c-0.9,2.1-0.4,4,1.5,5.3c2.1,1.4,4.4,2.1,6.8,2.6
		c2.2,0.4,4.4,0.7,6.6,1c0.3,0,0.6,0,0.8,0c-0.3-1.3-0.6-2.4-0.8-3.6c-0.8-5.5,0.6-10.4,4.4-14.6c2.6-2.9,5.9-4.7,9.7-5.3
		c7.1-1.1,13,1.1,17.4,7c0.7,1,1.3,2,1.8,3.1c0.3,0.6,0.6,0.7,1.2,0.7c4.6-0.2,9.1-0.5,13.7-0.4c4.6,0.1,9.3,0.5,13.7,2.2
		c1.9,0.7,3.7,1.6,5,3.3c1.4,1.7,1.8,3.7,1.3,5.9c-0.8,3.8-3.3,6.4-6.2,8.5c-2.3,1.7-4.8,3.1-7.4,4.4c-4.4,2.2-9.1,3.8-13.9,5
		c-4.1,1-8.2,1.9-12.3,2.7c-2.6,0.5-5.2,0.7-7.9,1c-4.4,0.5-8.9,0.7-13.4,0.6c-4.5-0.1-9-0.5-13.5-1.6c-0.1,0-0.2-0.1-0.3-0.1
		C-227.9,404.5-227.9,404.5-227.8,404.6z"/>
	<path id="XMLID_8_" class="st0" d="M-217.6,440.4c-1.1,0-1.9,0-2.8,0c-0.6,0-0.7-0.2-0.7-0.7c0-1.9,0-3.8,0-5.7
		c0-7.4,0-14.9,0-22.3c0-0.2,0-0.4,0-0.6c2.2,0,4.4,0,6.6,0c0.8,0,1.6,0.1,2.4,0.6c0.9,0.6,1.4,1.3,1.5,2.2c0.1,2.5,0.1,4.9,0.2,7.4
		c0,0.6-0.1,1.2-0.2,1.8c-0.2,1.2-0.8,2-2.1,2.2c-0.1,0-0.2,0.1-0.4,0.2c2.2,0.8,2.7,2.5,2.7,4.4c0,1.6,0,3.2,0,4.8
		c0.1,1.8,0.2,3.7,0.4,5.6c-0.9,0-1.9,0-2.9,0c-0.2,0-0.5-0.3-0.5-0.5c-0.2-0.8-0.3-1.5-0.3-2.3c0-2.3,0-4.6,0-6.9
		c0-0.8-0.2-1.7-0.4-2.5c-0.3-1.1-0.8-1.4-1.9-1.4c-0.4,0-0.9,0-1.5,0C-217.6,431.4-217.6,435.9-217.6,440.4z M-217.7,419.1
		c0,1.3,0,2.5,0,3.8c0,0.6,0.1,0.9,0.8,0.8c0.4,0,0.9,0,1.3,0.1c1,0.1,1.4-0.2,1.5-1c0.1-0.6,0.2-1.2,0.2-1.9c0-1.7-0.1-3.5-0.1-5.2
		c0-0.6-0.3-1-0.8-1.1c-0.7-0.1-1.4-0.1-2.1-0.2c-0.6,0-0.8,0.2-0.8,0.8C-217.6,416.5-217.7,417.8-217.7,419.1z"/>
	<path id="XMLID_7_" class="st0" d="M-170.4,425.9c0,3.2,0,6.4,0,9.5c-0.1,2.7-1.4,4.7-4.2,5.3c-3.9,0.9-6.4-1.3-7.1-4.7
		c-0.1-0.6-0.2-1.2-0.2-1.8c0-5.7,0-11.4,0-17c0-1.8,0.3-3.6,1.6-5c1.7-1.7,3.7-2,6-1.4c2.2,0.5,3.2,2.1,3.7,4.2
		c0.1,0.7,0.2,1.4,0.2,2.1C-170.3,420.2-170.3,423-170.4,425.9C-170.3,425.9-170.3,425.9-170.4,425.9z M-173.7,422.1
		c-0.1,0-0.1,0-0.2,0c0-2.2,0-4.4,0-6.5c0-0.9-0.8-1.6-1.7-1.8c-1-0.2-1.9,0.2-2.4,0.9c-0.6,0.9-0.4,1.8-0.4,2.8
		c0,5.8-0.1,11.5-0.1,17.3c0,0.5,0,0.9,0.1,1.4c0.2,1.2,1.6,1.9,2.7,1.6c1.4-0.4,2.1-1.2,2.1-2.7c0-2.6-0.1-5.1-0.1-7.7
		C-173.7,425.7-173.7,423.9-173.7,422.1z"/>
	<path id="XMLID_6_" class="st0" d="M-196.6,440.4c-1,0-1.9,0-2.8,0c-0.2,0-0.5-0.3-0.6-0.5c-0.2-1.4-0.4-2.7-0.5-4.1
		c-0.1-0.6-0.3-0.9-0.9-0.8c-1.2,0-2.4,0-3.6,0c-0.2,1.8-0.5,3.6-0.7,5.5c-1.1,0-2.1,0-3.3,0c0.2-1.2,0.3-2.5,0.5-3.7
		c0.4-2.7,0.8-5.5,1.2-8.2c0.4-2.7,0.8-5.5,1.2-8.2c0.4-2.8,0.8-5.6,1.2-8.4c0.1-0.5,0.2-0.7,0.7-0.7c1.2,0,2.4,0,3.6,0
		C-199.3,421-198,430.7-196.6,440.4z M-202.8,417c-0.1,0-0.2,0-0.3,0c-0.5,4.8-1.1,9.6-1.6,14.4c1.3,0,2.4,0,3.7,0
		C-201.6,426.5-202.2,421.7-202.8,417z"/>
	<path id="XMLID_5_" class="st0" d="M-223,440.4c-1.1,0-2.1,0-3.3,0c-0.2-1.2-0.4-2.3-0.5-3.5c-0.2-2-0.1-2-2.1-2
		c-0.8,0-1.6,0-2.5,0c-0.2,1.8-0.5,3.6-0.7,5.5c-1.1,0-2.1,0-3.3,0c0.2-1.5,0.4-3,0.6-4.5c0.4-3.2,0.9-6.3,1.4-9.5
		c0.6-3.9,1.1-7.8,1.7-11.6c0.1-1,0.3-1.9,0.3-2.9c0-0.5,0.2-0.7,0.7-0.7c1,0,2,0,3.1,0c0.4,0,0.6,0.2,0.7,0.6
		c0.5,3.6,1,7.3,1.5,10.9c0.4,3.2,0.9,6.4,1.4,9.6C-223.7,435-223.3,437.7-223,440.4z M-229.1,416.9c-0.1,0-0.2,0-0.2,0
		c-0.1,0.6-0.1,1.2-0.2,1.9c-0.2,2-0.4,4.1-0.7,6.1c-0.2,2-0.5,4-0.7,6c-0.1,0.5,0.1,0.7,0.6,0.7c1,0,2,0,3.1,0
		C-227.9,426.5-228.5,421.7-229.1,416.9z"/>
	<path id="XMLID_4_" class="st0" d="M-187.1,431.6c1.2,0,2.2,0,3.4,0c0,1.1,0,2.1,0,3.2c0.1,1.2-0.2,2.3-0.8,3.3
		c-0.9,1.8-2.4,2.6-4.4,2.8c-4,0.4-6.4-2.7-6.4-6.2c0-6,0-11.9,0-17.9c0-2.7,1.6-5.2,3.9-5.9c4-1.2,7.4,0.8,7.7,5.4
		c0.1,1.2,0,2.4,0,3.6c-1.1,0-2.2,0-3.4,0c0-1.3,0-2.5,0-3.8c0-0.9-0.3-1.7-1.2-2.2c-0.8-0.4-1.7-0.5-2.4,0.1c-0.5,0.5-1,1.2-1,1.8
		c-0.1,6.3-0.1,12.7,0,19c0,2.1,1.1,3.1,3,2.7c1-0.2,1.7-1,1.7-2.1C-187.1,434.3-187.1,433-187.1,431.6z"/>
	<path id="XMLID_3_" class="st0" d="M-239.5,431.6c1.1,0,2.2,0,3.2,0c0,0.1,0.1,0.1,0.1,0.1c-0.1,1.7,0.1,3.6-0.3,5.2
		c-0.7,2.8-2.7,4.1-5.6,4c-2.7-0.1-4.7-1.6-5.3-4.3c-0.3-1-0.2-2.2-0.2-3.3c0-4.9,0-9.7,0-14.6c0-1.4,0-2.8,0.3-4.1
		c0.6-2.6,2.8-4.2,5.5-4.1c2.7,0.1,4.5,1.3,5.3,4.1c0.5,1.7,0.5,3.5,0.2,5.2c-1.1,0-2.2,0-3.4,0c0-1.2,0-2.4,0-3.6
		c0-1.6-0.8-2.5-2.2-2.6c-1.5,0-2.4,0.9-2.4,2.5c0,6.1,0,12.1,0,18.2c0,0.5,0,1.1,0.1,1.6c0.2,1,1.3,1.8,2.4,1.7
		c1.3-0.1,2.1-0.9,2.1-2C-239.5,434.4-239.5,433-239.5,431.6z"/>
	<path id="XMLID_2_" class="st0" d="M-164.7,411.2c0,8.7,0,17.2,0,25.8c2,0,4,0,6.1,0c0,1.2,0,2.2,0,3.4c-3.1,0-6.2,0-9.4,0
		c0-0.3,0-0.6,0-0.9c0-9.1,0-18.2,0-27.4c0-0.8,0.3-1,0.9-1C-166.3,411.2-165.6,411.2-164.7,411.2z"/>
</g>
</svg>
