<?xml version="1.0" encoding="utf-8"?>
<!-- Generator: Adobe Illustrator 19.0.0, SVG Export Plug-In . SVG Version: 6.00 Build 0)  -->
<svg version="1.1" id="Layer_1" xmlns="http://www.w3.org/2000/svg" xmlns:xlink="http://www.w3.org/1999/xlink" x="0px" y="0px"
	 viewBox="0 0 185.2 87" style="enable-background:new 0 0 185.2 87;" xml:space="preserve">
<style type="text/css">
	.st0{fill:#CED500;}
</style>
<g id="XMLID_1158_">
	<path id="XMLID_1186_" class="st0" d="M121.7,30.5c-0.5,11.1-5.4,20.4-15.9,26c-9.2,5-18.7,4.5-27.6-0.9
		c-8.1-4.9-12.8-12.5-13.9-22C63.1,23.1,66.3,14.1,74,7c10.9-10.1,27.8-9.7,38.4,0.7C118.5,13.7,121.5,21.1,121.7,30.5z M87.9,24.7
		c0,0.4,0,0.7,0,1c0,5.4,0,10.8,0,16.1c0,3,2.2,5.3,5,5.3c2.9,0,5.2-2.3,5.2-5.3c0-5.4,0-10.9,0-16.3c0-0.3,0-0.6,0-0.9
		c2.5,0,4.8,0,7.2,0c3.7-0.1,6-4,4.4-7.4c-0.9-2-2.5-2.9-4.7-2.9c-7.9,0-15.9,0-23.8,0c-0.2,0-0.4,0-0.6,0c-3.5,0.3-5.9,4-4.5,7.1
		c0.9,2.1,2.7,3.2,4.9,3.3C83.3,24.7,85.5,24.7,87.9,24.7z"/>
	<path id="XMLID_1185_" class="st0" d="M138.3,87.1c-0.5,0-1,0-1.5,0c0-5.3,0-10.5,0-15.8c0.6,0,1.3,0,2,0c0.2,0,0.4,0.4,0.5,0.6
		c1.7,4,3.4,8.1,5.1,12.1c0.1,0.2,0.2,0.4,0.4,0.8c0.7-1.7,1.3-3.2,2-4.7c1.1-2.7,2.3-5.5,3.4-8.2c0.2-0.4,0.4-0.7,0.9-0.6
		c0.5,0,1.1,0,1.7,0c0,5.3,0,10.5,0,15.8c-0.4,0-0.9,0-1.4,0c0-4.6,0-9.2,0-13.8c-0.1,0-0.1,0-0.2,0c-0.2,0.6-0.5,1.2-0.7,1.8
		c-1.6,3.8-3.1,7.6-4.7,11.5c-0.2,0.5-0.4,0.7-0.9,0.7c-0.6,0-0.7-0.3-0.9-0.7c-1.7-4.2-3.4-8.4-5.1-12.6c-0.1-0.2-0.2-0.5-0.5-0.7
		C138.3,77.8,138.3,82.4,138.3,87.1z"/>
	<path id="XMLID_1181_" class="st0" d="M162.6,78.6c1.3,0.7,2.2,1.6,2.4,3.1c0.5,2.5-0.9,4.9-3.4,5.2c-2,0.2-4.1,0-6.2,0
		c0-5.1,0-10.4,0-15.7c2.1,0.2,4.3-0.4,6.3,0.4c2.7,1.1,3.4,4.4,1.3,6.5C162.9,78.3,162.7,78.5,162.6,78.6z M156.7,79.3
		c0,2.1,0,4,0,5.9c0,0.2,0.3,0.5,0.4,0.5c1.4,0,2.8,0,4.1-0.2c1.4-0.2,2.3-1.4,2.3-2.8c0-1.3-0.7-2.6-2.1-2.9
		C160,79.5,158.4,79.5,156.7,79.3z M156.7,78.1c1.1,0,2,0,3,0c0.3,0,0.5-0.1,0.8-0.1c1.4-0.3,2.2-1.2,2.2-2.6c0-1.3-0.8-2.4-2.2-2.6
		c-1.1-0.2-2.2-0.2-3.3-0.2c-0.2,0-0.5,0.3-0.5,0.5C156.7,74.7,156.7,76.3,156.7,78.1z"/>
	<path id="XMLID_1178_" class="st0" d="M118.6,79.1c0.1-4.7,3.8-8.3,8.5-8.2c4.3,0.1,7.9,3.9,7.9,8.4c-0.1,4.6-3.8,8.2-8.5,8.1
		C122.2,87.3,118.6,83.5,118.6,79.1z M126.8,72.3c-3.6-0.1-6.7,3-6.7,6.7c-0.1,3.9,2.9,7,6.6,7.1c3.7,0.1,6.8-3,6.9-6.7
		C133.6,75.5,130.6,72.4,126.8,72.3z"/>
	<path id="XMLID_1175_" class="st0" d="M93.9,79.1c0.1-4.7,3.8-8.3,8.4-8.2c4.5,0.1,8.1,3.8,8,8.5c-0.1,4.5-3.9,8.1-8.5,8
		C97.5,87.3,93.8,83.5,93.9,79.1z M95.4,79.3c0,3.6,3.1,6.7,6.7,6.7c3.7,0,6.8-3.1,6.8-6.9c0-3.8-3.2-6.9-6.9-6.8
		C98.4,72.3,95.4,75.6,95.4,79.3z"/>
	<path id="XMLID_1172_" class="st0" d="M185.2,87c-1.5,0.2-1.5,0.2-2-1.1c-0.5-1.2-1-2.4-1.5-3.6c-0.2-0.4-0.4-0.6-0.9-0.6
		c-2,0-4,0-6,0c-0.5,0-0.8,0.2-0.9,0.7c-0.5,1.2-1,2.4-1.5,3.5c-0.5,1.2-0.5,1.2-2,1.1c0-0.1,0-0.3,0.1-0.4c2-4.9,4.1-9.8,6.1-14.8
		c0.2-0.5,0.4-0.8,1-0.7c0.5,0.1,1-0.1,1.4,0.7c2,4.8,4,9.6,6,14.4C185.1,86.5,185.1,86.8,185.2,87z M180.8,80.3c-1-2.5-2-4.8-3-7.4
		c-1.1,2.6-2.1,5-3.1,7.4C176.8,80.3,178.8,80.3,180.8,80.3z"/>
	<path id="XMLID_1171_" class="st0" d="M92.3,83.1c-1.1,2.9-5.1,4.8-8.6,4.1c-3.8-0.8-6.5-4.1-6.5-8.1c0-3.9,2.7-7.3,6.5-8
		c3.5-0.7,7.4,1.2,8.6,4.1c-0.9,0.1-1.5,0.1-2.2-0.7c-2.5-2.8-6.6-2.9-9.3-0.3C78,77,78,81.2,80.7,84c2.7,2.8,6.7,2.8,9.3-0.1
		C90.6,83.2,91.3,82.8,92.3,83.1z"/>
	<path id="XMLID_1170_" class="st0" d="M55.7,78.4c0,0.4,0,0.8,0,1.3c-0.2,0-0.5,0-0.7,0c-1.8,0-3.5,0-5.3,0c-0.5,0-0.7,0.1-0.7,0.7
		c0,1.5,0,3.1,0,4.6c0,0.5,0.2,0.7,0.7,0.7c1.8,0,3.5,0,5.3,0c0.3,0,0.6,0,0.9,0c0,0.5,0,0.9,0,1.3c-2.8,0-5.5,0-8.3,0
		c0-5.2,0-10.5,0-15.8c2.8,0,5.5,0,8.3,0c0,0.4,0,0.8,0,1.3c-1.6,0-3.2,0-4.8,0c-2.1,0-2.1,0-2.1,2.2c0,0.8,0,1.6,0,2.4
		c0,1.4-0.1,1.2,1.2,1.2c1.6,0,3.2,0,4.8,0C55.3,78.4,55.5,78.4,55.7,78.4z"/>
	<path id="XMLID_1169_" class="st0" d="M75.9,78.4c0,0.5,0,0.9,0,1.3c-2.2,0-4.4,0-6.6,0c0,2,0,4,0,6c2.3,0,4.5,0,6.8,0
		c0,0.5,0,0.8,0,1.3c-2.8,0-5.5,0-8.3,0c0-5.2,0-10.5,0-15.8c2.7,0,5.5,0,8.3,0c0,0.4,0,0.8,0,1.3c-2.3,0-4.5,0-6.8,0
		c0,2,0,3.8,0,5.8C71.5,78.4,73.7,78.4,75.9,78.4z"/>
	<path id="XMLID_1168_" class="st0" d="M46.2,71.3c0,0.4,0,0.8,0,1.3c-1.1,0-2.2,0-3.5,0c0,4.9,0,9.7,0,14.5c-0.5,0-1,0-1.5,0
		c0-4.8,0-9.6,0-14.5c-1.2,0-2.3,0-3.5,0c0-0.5,0-0.9,0-1.3C40.5,71.3,43.3,71.3,46.2,71.3z"/>
	<path id="XMLID_1167_" class="st0" d="M66.6,85.7c0,0.5,0,0.9,0,1.3c-2.6,0-5.2,0-7.9,0c0-5.2,0-10.5,0-15.8c0.4,0,0.9,0,1.4,0
		c0,0.3,0,0.6,0,0.9c0,4.2,0,8.5,0,12.7c0,0.7,0.2,0.9,0.9,0.9C62.8,85.7,64.7,85.7,66.6,85.7z"/>
	<path id="XMLID_1166_" class="st0" d="M111.8,71.2c0.5,0,0.9,0,1.4,0c0,4.8,0,9.6,0,14.4c2.2,0,4.3,0,6.4,0c0,0.5,0,0.9,0,1.3
		c-2.6,0-5.2,0-7.8,0C111.8,81.8,111.8,76.6,111.8,71.2z"/>
	<path id="XMLID_1165_" class="st0" d="M168.6,87.1c-0.5,0-0.9,0-1.4,0c0-5.2,0-10.5,0-15.8c0.4,0,0.9,0,1.4,0
		C168.6,76.5,168.6,81.7,168.6,87.1z"/>
	<polygon id="XMLID_1164_" class="st0" points="9.8,75.2 9.4,70.8 0,70.8 0,87 4.3,87 4.4,81.7 8.7,81.7 8.7,77.4 4.4,77.4 
		4.4,75.3 	"/>
	<g id="XMLID_1160_">
		<path id="XMLID_1161_" class="st0" d="M17.2,71.1c-3.5,0-7.6,2.8-7.6,7.8c0,5.2,4.1,7.9,7.6,7.9s7.4-2.8,7.4-7.9
			C24.6,73.8,20.7,71.1,17.2,71.1z M18.5,82.8c-1.2,2.1-2.7,0-2.7,0s0-4.9,0-7.7c1.3-2.1,2.7,0,2.7,0S18.5,80.4,18.5,82.8z"/>
	</g>
	<polygon id="XMLID_1159_" class="st0" points="22.5,70.8 27.6,70.8 29.4,74.5 31.2,70.9 36.1,70.8 31.8,78.5 36.7,87 31.5,87 
		29.4,82.8 27.1,87 22.2,87 27,78.7 	"/>
</g>
</svg>
