<?xml version="1.0" encoding="utf-8"?>
<!-- Generator: Adobe Illustrator 19.0.0, SVG Export Plug-In . SVG Version: 6.00 Build 0)  -->
<svg version="1.1" id="Layer_1" xmlns="http://www.w3.org/2000/svg" xmlns:xlink="http://www.w3.org/1999/xlink" x="0px" y="0px"
	 viewBox="0 0 195.5 46.7" style="enable-background:new 0 0 195.5 46.7;" xml:space="preserve">
<style type="text/css">
	.st0{fill:#CED500;}
</style>
<g id="XMLID_1047_">
	<g id="XMLID_1127_">
		<g id="XMLID_226_">
			<path id="XMLID_239_" class="st0" d="M6.8,18.9V2.5H0V0.3h16.4v2.2H9.6v16.4H6.8z"/>
			<path id="XMLID_237_" class="st0" d="M19.3,18.9V0.3h15v2.2H22v5.7h11.4v2.2H22v6.3h12.7v2.2H19.3z"/>
			<path id="XMLID_235_" class="st0" d="M38.4,18.9V0.3h2.7v16.4h10.2v2.2H38.4z"/>
			<path id="XMLID_233_" class="st0" d="M54.6,18.9V0.3h15v2.2H57.4v5.7h11.4v2.2H57.4v6.3h12.7v2.2H54.6z"/>
			<path id="XMLID_231_" class="st0" d="M72.9,12.9l2.6-0.2c0.1,0.9,0.4,1.7,0.9,2.3c0.4,0.6,1.1,1.1,2.1,1.4c0.9,0.4,2,0.6,3.2,0.6
				c1,0,2-0.1,2.8-0.4c0.8-0.3,1.4-0.7,1.8-1.1c0.4-0.5,0.6-1,0.6-1.6c0-0.6-0.2-1.1-0.6-1.5c-0.4-0.4-1-0.8-1.9-1.1
				c-0.6-0.2-1.8-0.5-3.7-0.9c-1.9-0.4-3.2-0.8-4-1.2c-1-0.5-1.7-1-2.2-1.7c-0.5-0.7-0.7-1.5-0.7-2.3c0-0.9,0.3-1.8,0.9-2.6
				c0.6-0.8,1.5-1.4,2.6-1.9C78.3,0.2,79.6,0,81,0c1.5,0,2.9,0.2,4.1,0.7s2.1,1.1,2.7,2s1,1.8,1,2.9l-2.6,0.2
				c-0.1-1.2-0.6-2.1-1.4-2.7c-0.8-0.6-2-0.9-3.6-0.9c-1.7,0-2.9,0.3-3.6,0.8c-0.8,0.5-1.1,1.2-1.1,2c0,0.7,0.3,1.2,0.8,1.6
				C77.7,7,79,7.5,81.3,7.9c2.2,0.5,3.8,0.8,4.6,1.2c1.2,0.5,2.1,1.1,2.7,1.9c0.6,0.8,0.9,1.6,0.9,2.6c0,1-0.3,1.9-0.9,2.8
				s-1.5,1.6-2.7,2c-1.2,0.5-2.5,0.7-4,0.7c-1.9,0-3.4-0.2-4.7-0.7c-1.3-0.5-2.3-1.2-3-2.2C73.3,15.3,72.9,14.2,72.9,12.9z"/>
			<path id="XMLID_229_" class="st0" d="M93.2,18.9V0.3h15v2.2H95.9v5.7h11.4v2.2H95.9v6.3h12.7v2.2H93.2z"/>
			<path id="XMLID_227_" class="st0" d="M117.7,18.9V2.5h-6.8V0.3h16.4v2.2h-6.8v16.4H117.7z"/>
		</g>
	</g>
	<rect id="XMLID_1126_" x="0" y="28.1" class="st0" width="2.5" height="18.6"/>
	<rect id="XMLID_1125_" x="8.1" y="28.1" class="st0" width="2.5" height="18.6"/>
	<rect id="XMLID_1124_" x="16.1" y="28.1" class="st0" width="2.5" height="18.6"/>
	<rect id="XMLID_1123_" x="24.2" y="28.1" class="st0" width="2.5" height="18.6"/>
	<rect id="XMLID_1122_" x="32.3" y="28.1" class="st0" width="2.5" height="18.6"/>
	<rect id="XMLID_1121_" x="40.4" y="28.1" class="st0" width="2.5" height="18.6"/>
	<rect id="XMLID_1116_" x="48.4" y="28.1" class="st0" width="2.5" height="18.6"/>
	<rect id="XMLID_1101_" x="56.5" y="28.1" class="st0" width="2.5" height="18.6"/>
	<rect id="XMLID_1100_" x="64.4" y="28.1" class="st0" width="2.5" height="18.6"/>
	<rect id="XMLID_1097_" x="72.5" y="28.1" class="st0" width="2.5" height="18.6"/>
	<rect id="XMLID_1096_" x="80.5" y="28.1" class="st0" width="2.5" height="18.6"/>
	<rect id="XMLID_1095_" x="88.6" y="28.1" class="st0" width="2.5" height="18.6"/>
	<rect id="XMLID_1094_" x="96.7" y="28.1" class="st0" width="2.5" height="18.6"/>
	<rect id="XMLID_1093_" x="104.8" y="28.1" class="st0" width="2.5" height="18.6"/>
	<rect id="XMLID_1092_" x="112.8" y="28.1" class="st0" width="2.5" height="18.6"/>
	<rect id="XMLID_1091_" x="120.9" y="28.1" class="st0" width="2.5" height="18.6"/>
	<rect id="XMLID_1090_" x="128.5" y="28.1" class="st0" width="2.5" height="18.6"/>
	<rect id="XMLID_1089_" x="136.6" y="28.1" class="st0" width="2.5" height="18.6"/>
	<rect id="XMLID_1088_" x="144.6" y="28.1" class="st0" width="2.5" height="18.6"/>
	<rect id="XMLID_1087_" x="152.7" y="28.1" class="st0" width="2.5" height="18.6"/>
	<rect id="XMLID_1086_" x="160.8" y="28.1" class="st0" width="2.5" height="18.6"/>
	<rect id="XMLID_1079_" x="168.9" y="28.1" class="st0" width="2.5" height="18.6"/>
	<rect id="XMLID_1078_" x="176.9" y="28.1" class="st0" width="2.5" height="18.6"/>
	<rect id="XMLID_1077_" x="185" y="28.1" class="st0" width="2.5" height="18.6"/>
	<rect id="XMLID_1049_" x="193" y="28.1" class="st0" width="2.5" height="18.6"/>
</g>
</svg>
