<?xml version="1.0" encoding="utf-8"?>
<!-- Generator: Adobe Illustrator 19.0.0, SVG Export Plug-In . SVG Version: 6.00 Build 0)  -->
<svg version="1.1" id="Layer_1" xmlns="http://www.w3.org/2000/svg" xmlns:xlink="http://www.w3.org/1999/xlink" x="0px" y="0px"
	 viewBox="-244 353 122.4 87" style="enable-background:new -244 353 122.4 87;" xml:space="preserve">
<style type="text/css">
	.st0{fill:#CED508;}
	.st1{fill:#CED500;}
</style>
<g id="XMLID_1189_">
	<path id="XMLID_1226_" class="st0" d="M-479.7,792.8c-1,0-1.9,0-2.8,0c0-0.7,0-1.3-0.1-2s-0.2-1.5-0.4-2.1c-0.4-1.3-1-1.6-2.3-1.5
		c0,1.9,0,3.7,0,5.6c-0.9,0-1.8,0-2.7,0c0-4.2,0-8.4,0-12.6c0.1,0,0.2,0,0.3,0c1.6,0,3.1,0,4.7,0c0.4,0,0.8,0.1,1.2,0.2
		c1,0.3,1.8,1.3,1.8,2.4c0,0.4,0,0.9,0,1.3c-0.1,1-0.8,1.7-1.9,1.9c-0.1,0-0.3,0.1-0.5,0.1c1.7,0.7,2.3,2.1,2.5,3.7
		C-479.8,790.8-479.8,791.7-479.7,792.8z M-485.3,785.3c0.5,0,1,0,1.5-0.1c0.6-0.1,0.9-0.5,1-1.1c0-0.4,0-0.8,0-1.1
		c-0.1-0.4-0.3-0.8-0.7-0.8c-0.6-0.1-1.1-0.1-1.7-0.2C-485.3,783.1-485.3,784.2-485.3,785.3z"/>
	<path id="XMLID_1225_" class="st0" d="M-367.5,787.3c0-2.6,0-5,0-7.5c0.7,0,1.3,0,2,0c0,4.2,0,8.5,0,12.7c-0.4,0-0.7,0-1.1,0
		c-0.1,0-0.2-0.1-0.3-0.2c-1.9-2.5-3.8-5-5.7-7.5c0,0,0,0-0.1-0.1c0,2.6,0,5.2,0,7.8c-0.7,0-1.4,0-2,0c0-4.2,0-8.4,0-12.7
		c0.5,0,1,0,1.4,0c0.1,0,0.2,0.2,0.3,0.3c1.4,1.8,2.8,3.6,4.2,5.5C-368.4,786.2-368,786.7-367.5,787.3z"/>
	<path id="XMLID_1207_" class="st0" d="M-386.4,786c0.1-1.5,0.3-3,1.1-4.3c0.8-1.2,1.9-1.9,3.2-2c1-0.1,1.9-0.1,2.8,0.4
		c1.2,0.6,2,1.6,2.4,2.8c0.7,2.1,0.7,4.3,0.1,6.5c-0.6,2.2-2.5,3.5-4.8,3.4c-2.8-0.1-4.5-2.1-4.8-4.7
		C-386.3,787.4-386.3,786.7-386.4,786z M-379,786.5c-0.1-1.1-0.1-2-0.3-2.9c-0.1-0.5-0.2-1.1-0.5-1.4c-0.6-0.8-1.4-0.7-2.3-0.5
		c-0.8,0.2-1.1,0.8-1.2,1.6c-0.3,2-0.3,4-0.1,5.9c0.1,0.6,0.2,1.3,0.9,1.6c1.1,0.5,2.7,0.4,3.1-1.4
		C-379.2,788.4-379.1,787.3-379,786.5z"/>
	<path id="XMLID_1206_" class="st0" d="M-466.7,792.8c-0.7,0-1.3,0-2,0c0-4.2,0-8.4,0-12.6c0.5,0,0.9,0,1.4,0c0.1,0,0.2,0.1,0.3,0.2
		c1.3,1.7,2.7,3.5,4,5.2c0.5,0.6,1,1.2,1.5,1.9c0-2.5,0-4.9,0-7.4c0.7,0,1.3,0,2,0c0,4.2,0,8.4,0,12.6c-0.4,0-0.7,0-1,0
		c-0.1,0-0.2-0.1-0.3-0.2c-1.7-2.2-3.4-4.5-5.1-6.7c-0.2-0.3-0.4-0.5-0.7-0.9C-466.7,787.6-466.7,790.2-466.7,792.8z"/>
	<path id="XMLID_1205_" class="st0" d="M-445.3,792.6c0-4.2,0-8.5,0-12.7c2.5,0,4.9,0,7.4,0c0,0.6,0,1.2,0,1.9c-1.5,0-3.1,0-4.6,0
		c0,1.1,0,2.2,0,3.4c1.2,0,2.4,0,3.6,0c0,0.7,0,1.3,0,2c-1.2,0-2.4,0-3.6,0c0,1.2,0,2.4,0,3.6c1.7,0,3.3,0,5,0c0,0.7,0,1.3,0,1.9
		C-440.1,792.6-442.7,792.6-445.3,792.6z"/>
	<path id="XMLID_1204_" class="st0" d="M-419.3,779.9c0,0.6,0,1.2,0,1.9c-1.5,0-3.1,0-4.6,0c0,1.1,0,2.2,0,3.4c1.2,0,2.4,0,3.6,0
		c0,0.7,0,1.3,0,2c-1.2,0-2.4,0-3.6,0c0,1.2,0,2.4,0,3.6c1.6,0,3.3,0,5,0c0,0.7,0,1.3,0,1.9c-2.6,0-5.1,0-7.7,0c0-4.2,0-8.4,0-12.7
		C-424.3,779.9-421.8,779.9-419.3,779.9z"/>
	<path id="XMLID_1203_" class="st0" d="M-394.1,782.1c-0.7-0.1-1.3-0.3-2-0.3c-0.6-0.1-1.2,0-1.8,0c-0.6,0.1-1.1,0.5-1.2,1
		c-0.1,0.7,0.1,1.2,0.8,1.5c0.6,0.3,1.2,0.5,1.9,0.8c0.8,0.3,1.6,0.8,2.1,1.5c1.6,2.2,0.6,5.3-2.1,6c-1.9,0.5-3.7,0.3-5.5-0.2
		c-0.2-0.1-0.3-0.2-0.3-0.4c0-0.6,0-1.2,0-1.8c0.4,0.1,0.7,0.3,1,0.4c1.2,0.4,2.4,0.5,3.6,0.3c0.6-0.1,1-0.4,1.1-1.1s0-1.3-0.6-1.6
		c-0.5-0.3-1.1-0.6-1.7-0.9c-0.6-0.3-1.1-0.6-1.7-1c-1.7-1.2-2-4.7,0.8-6c0.8-0.4,1.6-0.5,2.5-0.5c0.9,0.1,1.8,0.2,2.7,0.4
		c0.3,0,0.4,0.2,0.3,0.5C-394.1,781-394.1,781.5-394.1,782.1z"/>
	<path id="XMLID_1202_" class="st0" d="M-418.7,779.9c1,0,2,0,3,0c0.9,2.9,1.7,5.7,2.6,8.7c0.2-0.7,0.4-1.3,0.6-1.9
		c0.6-2.2,1.3-4.3,1.9-6.5c0.1-0.2,0.2-0.3,0.4-0.3c0.7,0,1.3,0,2,0c-0.3,1-0.6,2-1,2.9c-1,3.2-2.1,6.3-3.1,9.5
		c-0.1,0.3-0.2,0.4-0.5,0.4c-0.5,0-1,0-1.6,0c-0.3,0-0.4-0.1-0.5-0.4c-1.1-3.6-2.3-7.2-3.4-10.8
		C-418.4,780.9-418.5,780.4-418.7,779.9z"/>
	<path id="XMLID_1201_" class="st0" d="M-470.3,782.4c-0.8-0.4-1.6-0.5-2.4-0.5c-1.1,0-2,0.5-2.5,1.5c-0.9,2-0.9,4-0.1,6
		c0.4,1.1,1.5,1.6,2.6,1.5c0.8-0.1,1.5-0.3,2.3-0.4c0,0.5,0,1.1,0,1.7c0,0.1-0.1,0.2-0.2,0.3c-2,0.8-4.9,0.7-6.7-1.3
		c-0.7-0.8-1.1-1.8-1.3-2.9c-0.2-1.5-0.2-3,0.2-4.4c0.7-2.3,2.6-3.9,4.9-4c0.9,0,1.9,0,2.8,0.3c0.2,0.1,0.3,0.2,0.3,0.4
		C-470.3,781.3-470.3,781.8-470.3,782.4z"/>
	<path id="XMLID_1200_" class="st0" d="M-449.2,792.6c-0.9,0-1.8,0-2.8,0c0-3.6,0-7.2,0-10.8c-0.9,0-1.8,0-2.7,0c0-0.7,0-1.3,0-1.9
		c2.7,0,5.4,0,8.1,0c0,0.6,0,1.2,0,1.9c-0.7,0-1.4,0-2.1,0c-0.6,0-0.6-0.1-0.6,0.6c0,3.3,0,6.6,0,9.8
		C-449.2,792.3-449.2,792.4-449.2,792.6z"/>
	<path id="XMLID_1199_" class="st0" d="M-428.6,790.7c0,0.7,0,1.3,0,1.9c-2.4,0-4.8,0-7.2,0c0-4.2,0-8.5,0-12.7c0.9,0,1.8,0,2.7,0
		c0,3.6,0,7.2,0,10.8C-431.6,790.7-430.1,790.7-428.6,790.7z"/>
	<path id="XMLID_1198_" class="st0" d="M-406.7,779.9c0.9,0,1.8,0,2.7,0c0,4.2,0,8.5,0,12.7c-0.9,0-1.8,0-2.7,0
		C-406.7,788.3-406.7,784.1-406.7,779.9z"/>
	<path id="XMLID_1197_" class="st0" d="M-388.6,779.9c0,4.2,0,8.5,0,12.7c-0.9,0-1.8,0-2.7,0c0-4.2,0-8.5,0-12.7
		C-390.4,779.9-389.5,779.9-388.6,779.9z"/>
	<g id="XMLID_1190_">
		<path id="XMLID_1196_" class="st0" d="M-366,771.7c-0.1,0-0.3,0-0.4,0c-6.1,0-12.2,0-18.3,0c-2.8,0-5.6-0.4-8.3-1.2
			c-3.8-1.1-7.4-2.8-10.8-4.8c-1.7-1-3.3-2.1-4.8-3.3c-1.3-1-2.5-2.2-3.4-3.5c-0.1-0.1-0.4-0.7-0.4-0.8c1.8-0.9,3.5-1.9,5.2-2.8
			c0.6,0.7,1.5,1.8,2.2,2.5c1.5,1.4,3.2,2.5,5,3.4c1.5,0.8,3.1,1.6,4.7,2.3c1.7,0.7,3.5,1.2,5.3,1.7c1.3,0.3,2.6,0.6,3.9,0.7
			c1.5,0.1,3.1,0.1,4.6,0.1c2,0,4.1,0,6.1,0c1.1,0,2.1,0,3.2,0c0.2,0,0.3-0.1,0.3-0.3c0-0.1,0-0.2,0-0.3c0-17.7,0-35.4,0-53.1
			c0-0.1,0-0.2,0-0.4c-4.9,0-9.8,0-14.8,0c0,0.1,0,0.2,0,0.3c0,5.7,0,11.3,0,17c0,0.1,0,0.1,0,0.2s-0.1,0.2-0.1,0.3
			c-0.1-0.1-0.2-0.1-0.2-0.2c-0.2-0.4-0.5-0.9-0.7-1.3c-1.6-3-3.5-5.7-5.8-8c-1.4-1.4-2.8-2.7-4.3-3.9c-2.4-1.9-4.9-3.5-7.6-4.8
			c-1.8-0.8-3.6-1.6-5.5-2.2c-2.4-0.8-4.8-1.4-7.3-1.8c-1.9-0.3-3.9-0.6-5.9-0.6c-0.9,0-1.8,0-2.7,0c-0.1-0.4,0.2-0.4,0.3-0.4
			c0.6-0.1,1.2-0.1,1.8-0.2c2.2-0.2,4.4-0.3,6.7-0.2c1.3,0,2.5,0.2,3.8,0.3c1.1,0.1,2.2,0.2,3.3,0.4c1.2,0.2,2.4,0.5,3.6,0.8
			c1.4,0.4,2.8,0.8,4.2,1.3c3.1,1.1,6.1,2.7,8.8,4.6c0.5,0.4,1.1,0.8,1.7,1.2c0-2.6,0-5.2,0-7.8c8.9,0,17.8,0,26.7,0
			C-366,728.5-366,750.1-366,771.7z"/>
		<path id="XMLID_1192_" class="st0" d="M-461,763c0,2.6,0,5.3,0,7.9c-0.1,0-0.2,0-0.4,0c-8.6,0-17.1,0-25.7,0c-0.6,0-0.6,0-0.6-0.6
			c0-21.1,0-42.2,0-63.3c0-0.3,0-0.6,0-1c0.3,0,0.6,0,1,0c5.9,0,11.8,0,17.7,0c1.6,0,3.1,0.2,4.7,0.4c2.5,0.3,4.8,1,7.1,2
			c1.3,0.5,2.6,1.2,3.9,1.8c2.1,1,4,2.2,5.9,3.5c1.5,1.1,3,2.2,4.3,3.6c0.5,0.6,1,1.2,1.5,1.7c-1.8,1-3.6,1.9-5.4,2.9
			c-1.3-1.9-3.1-3.1-5-4.3c-2.1-1.4-4.4-2.5-6.7-3.4c-2.6-1.1-5.3-1.9-8.2-2.2c-1.5-0.2-2.9-0.2-4.4-0.2c-2.7,0-5.4,0-8.1,0
			c-0.8,0-1.6,0-2.5,0c0,18.1,0,36.1,0,54.2c0.2,0,0.5,0,0.7,0c4.5,0,9.1,0,13.6,0c0.4,0,0.5-0.1,0.5-0.5c0-5.4,0-10.7,0-16.1
			c0-0.4,0-0.8,0-1.3c0.2,0.1,0.3,0.2,0.3,0.3c0.7,1.2,1.3,2.5,2.1,3.7c1.2,1.8,2.4,3.5,3.9,5c0.8,0.9,1.7,1.7,2.5,2.5
			c1.4,1.3,2.9,2.5,4.5,3.6c2.6,1.8,5.4,3.3,8.4,4.4c1.8,0.7,3.6,1.3,5.4,1.7c1.9,0.5,3.8,0.8,5.7,1.1c1.1,0.2,2.2,0.3,3.3,0.3
			c1.3,0.1,2.5,0.1,3.8,0.2c0.1,0,0.2,0.1,0.2,0.1c-0.1,0-0.1,0.1-0.2,0.1c-1.5,0.1-3,0.3-4.4,0.4c-1,0.1-2,0.1-3,0.1
			c-1.9-0.1-3.7-0.2-5.6-0.4c-1.5-0.2-3-0.5-4.6-0.8c-2.1-0.4-4.1-1-6.1-1.8c-2.2-0.9-4.4-1.8-6.5-3.1c-1.1-0.7-2.2-1.4-3.3-2.2
			C-460.6,763.3-460.8,763.1-461,763z M-480.1,711.5C-480.1,711.5-480.1,711.6-480.1,711.5c0.5,0,1,0,1.5,0l0,0
			C-479.1,711.5-479.6,711.5-480.1,711.5z"/>
		<path id="XMLID_1191_" class="st0" d="M-400.4,728.2l-6.1,3.5c0,0-5.4-9.4-20.6-9.4c-11.1,0-20.3,6.4-21.9,14.1
			c-1.5,7.6,6.5,19,21.5,19s18.1-6.8,21-9.8c5.5,3.1,5.9,3.4,5.9,3.4s-7.8,12.2-26.7,12.2c-18.9,0-29.7-13.1-29.7-21.9
			c0-10.2,9.8-23.1,29.4-23.1C-407.7,716-400.4,728.2-400.4,728.2z"/>
	</g>
</g>
<g id="XMLID_1_">
	<path id="XMLID_18_" class="st1" d="M-235.7,439.8c-1,0-1.9,0-2.8,0c0-0.7,0-1.3-0.1-2c-0.1-0.7-0.2-1.5-0.4-2.1
		c-0.4-1.3-1-1.6-2.3-1.5c0,1.9,0,3.7,0,5.6c-0.9,0-1.8,0-2.7,0c0-4.2,0-8.4,0-12.6c0.1,0,0.2,0,0.3,0c1.6,0,3.1,0,4.7,0
		c0.4,0,0.8,0.1,1.2,0.2c1,0.3,1.8,1.3,1.8,2.4c0,0.4,0,0.9,0,1.3c-0.1,1-0.8,1.7-1.9,1.9c-0.1,0-0.3,0.1-0.5,0.1
		c1.7,0.7,2.3,2.1,2.5,3.7C-235.8,437.8-235.8,438.7-235.7,439.8z M-241.3,432.3c0.5,0,1,0,1.5-0.1c0.6-0.1,0.9-0.5,1-1.1
		c0-0.4,0-0.8,0-1.1c-0.1-0.4-0.3-0.8-0.7-0.8c-0.6-0.1-1.1-0.1-1.7-0.2C-241.3,430.1-241.3,431.2-241.3,432.3z"/>
	<path id="XMLID_17_" class="st1" d="M-123.5,434.3c0-2.6,0-5,0-7.5c0.7,0,1.3,0,2,0c0,4.2,0,8.5,0,12.7c-0.4,0-0.7,0-1.1,0
		c-0.1,0-0.2-0.1-0.3-0.2c-1.9-2.5-3.8-5-5.7-7.5c0,0,0,0-0.1-0.1c0,2.6,0,5.2,0,7.8c-0.7,0-1.4,0-2,0c0-4.2,0-8.4,0-12.7
		c0.5,0,1,0,1.4,0c0.1,0,0.2,0.2,0.3,0.3c1.4,1.8,2.8,3.6,4.2,5.5C-124.4,433.2-124,433.7-123.5,434.3z"/>
	<path id="XMLID_16_" class="st1" d="M-142.4,433c0.1-1.5,0.3-3,1.1-4.3c0.8-1.2,1.9-1.9,3.2-2c1-0.1,1.9-0.1,2.8,0.4
		c1.2,0.6,2,1.6,2.4,2.8c0.7,2.1,0.7,4.3,0.1,6.5c-0.6,2.2-2.5,3.5-4.8,3.4c-2.8-0.1-4.5-2.1-4.8-4.7
		C-142.3,434.4-142.3,433.7-142.4,433z M-135,433.5c-0.1-1.1-0.1-2-0.3-2.9c-0.1-0.5-0.2-1.1-0.5-1.4c-0.6-0.8-1.4-0.7-2.3-0.5
		c-0.8,0.2-1.1,0.8-1.2,1.6c-0.3,2-0.3,4-0.1,5.9c0.1,0.6,0.2,1.3,0.9,1.6c1.1,0.5,2.7,0.4,3.1-1.4
		C-135.2,435.4-135.1,434.3-135,433.5z"/>
	<path id="XMLID_15_" class="st1" d="M-222.7,439.8c-0.7,0-1.3,0-2,0c0-4.2,0-8.4,0-12.6c0.5,0,0.9,0,1.4,0c0.1,0,0.2,0.1,0.3,0.2
		c1.3,1.7,2.7,3.5,4,5.2c0.5,0.6,1,1.2,1.5,1.9c0-2.5,0-4.9,0-7.4c0.7,0,1.3,0,2,0c0,4.2,0,8.4,0,12.6c-0.4,0-0.7,0-1,0
		c-0.1,0-0.2-0.1-0.3-0.2c-1.7-2.2-3.4-4.5-5.1-6.7c-0.2-0.3-0.4-0.5-0.7-0.9C-222.7,434.6-222.7,437.2-222.7,439.8z"/>
	<path id="XMLID_14_" class="st1" d="M-201.3,439.6c0-4.2,0-8.5,0-12.7c2.5,0,4.9,0,7.4,0c0,0.6,0,1.2,0,1.9c-1.5,0-3.1,0-4.6,0
		c0,1.1,0,2.2,0,3.4c1.2,0,2.4,0,3.6,0c0,0.7,0,1.3,0,2c-1.2,0-2.4,0-3.6,0c0,1.2,0,2.4,0,3.6c1.7,0,3.3,0,5,0c0,0.7,0,1.3,0,1.9
		C-196.1,439.6-198.7,439.6-201.3,439.6z"/>
	<path id="XMLID_13_" class="st1" d="M-175.3,426.9c0,0.6,0,1.2,0,1.9c-1.5,0-3.1,0-4.6,0c0,1.1,0,2.2,0,3.4c1.2,0,2.4,0,3.6,0
		c0,0.7,0,1.3,0,2c-1.2,0-2.4,0-3.6,0c0,1.2,0,2.4,0,3.6c1.6,0,3.3,0,5,0c0,0.7,0,1.3,0,1.9c-2.6,0-5.1,0-7.7,0c0-4.2,0-8.4,0-12.7
		C-180.3,426.9-177.8,426.9-175.3,426.9z"/>
	<path id="XMLID_12_" class="st1" d="M-150.1,429.1c-0.7-0.1-1.3-0.3-2-0.3c-0.6-0.1-1.2,0-1.8,0c-0.6,0.1-1.1,0.5-1.2,1
		c-0.1,0.7,0.1,1.2,0.8,1.5c0.6,0.3,1.2,0.5,1.9,0.8c0.8,0.3,1.6,0.8,2.1,1.5c1.6,2.2,0.6,5.3-2.1,6c-1.9,0.5-3.7,0.3-5.5-0.2
		c-0.2-0.1-0.3-0.2-0.3-0.4c0-0.6,0-1.2,0-1.8c0.4,0.1,0.7,0.3,1,0.4c1.2,0.4,2.4,0.5,3.6,0.3c0.6-0.1,1-0.4,1.1-1.1
		c0.1-0.7,0-1.3-0.6-1.6c-0.5-0.3-1.1-0.6-1.7-0.9c-0.6-0.3-1.1-0.6-1.7-1c-1.7-1.2-2-4.7,0.8-6c0.8-0.4,1.6-0.5,2.5-0.5
		c0.9,0.1,1.8,0.2,2.7,0.4c0.3,0,0.4,0.2,0.3,0.5C-150.1,428-150.1,428.5-150.1,429.1z"/>
	<path id="XMLID_11_" class="st1" d="M-174.7,426.9c1,0,2,0,3,0c0.9,2.9,1.7,5.7,2.6,8.7c0.2-0.7,0.4-1.3,0.6-1.9
		c0.6-2.2,1.3-4.3,1.9-6.5c0.1-0.2,0.2-0.3,0.4-0.3c0.7,0,1.3,0,2,0c-0.3,1-0.6,2-1,2.9c-1,3.2-2.1,6.3-3.1,9.5
		c-0.1,0.3-0.2,0.4-0.5,0.4c-0.5,0-1,0-1.6,0c-0.3,0-0.4-0.1-0.5-0.4c-1.1-3.6-2.3-7.2-3.4-10.8
		C-174.4,427.9-174.5,427.4-174.7,426.9z"/>
	<path id="XMLID_10_" class="st1" d="M-226.3,429.4c-0.8-0.4-1.6-0.5-2.4-0.5c-1.1,0-2,0.5-2.5,1.5c-0.9,2-0.9,4-0.1,6
		c0.4,1.1,1.5,1.6,2.6,1.5c0.8-0.1,1.5-0.3,2.3-0.4c0,0.5,0,1.1,0,1.7c0,0.1-0.1,0.2-0.2,0.3c-2,0.8-4.9,0.7-6.7-1.3
		c-0.7-0.8-1.1-1.8-1.3-2.9c-0.2-1.5-0.2-3,0.2-4.4c0.7-2.3,2.6-3.9,4.9-4c0.9,0,1.9,0,2.8,0.3c0.2,0.1,0.3,0.2,0.3,0.4
		C-226.3,428.3-226.3,428.8-226.3,429.4z"/>
	<path id="XMLID_9_" class="st1" d="M-205.2,439.6c-0.9,0-1.8,0-2.8,0c0-3.6,0-7.2,0-10.8c-0.9,0-1.8,0-2.7,0c0-0.7,0-1.3,0-1.9
		c2.7,0,5.4,0,8.1,0c0,0.6,0,1.2,0,1.9c-0.7,0-1.4,0-2.1,0c-0.6,0-0.6-0.1-0.6,0.6c0,3.3,0,6.6,0,9.8
		C-205.2,439.3-205.2,439.4-205.2,439.6z"/>
	<path id="XMLID_8_" class="st1" d="M-184.6,437.7c0,0.7,0,1.3,0,1.9c-2.4,0-4.8,0-7.2,0c0-4.2,0-8.5,0-12.7c0.9,0,1.8,0,2.7,0
		c0,3.6,0,7.2,0,10.8C-187.6,437.7-186.1,437.7-184.6,437.7z"/>
	<path id="XMLID_7_" class="st1" d="M-162.7,426.9c0.9,0,1.8,0,2.7,0c0,4.2,0,8.5,0,12.7c-0.9,0-1.8,0-2.7,0
		C-162.7,435.3-162.7,431.1-162.7,426.9z"/>
	<path id="XMLID_6_" class="st1" d="M-144.6,426.9c0,4.2,0,8.5,0,12.7c-0.9,0-1.8,0-2.7,0c0-4.2,0-8.5,0-12.7
		C-146.4,426.9-145.5,426.9-144.6,426.9z"/>
	<g id="XMLID_2_">
		<path id="XMLID_5_" class="st1" d="M-122,418.7c-0.1,0-0.3,0-0.4,0c-6.1,0-12.2,0-18.3,0c-2.8,0-5.6-0.4-8.3-1.2
			c-3.8-1.1-7.4-2.8-10.8-4.8c-1.7-1-3.3-2.1-4.8-3.3c-1.3-1-2.5-2.2-3.4-3.5c-0.1-0.1-0.4-0.7-0.4-0.8c1.8-0.9,3.5-1.9,5.2-2.8
			c0.6,0.7,1.5,1.8,2.2,2.5c1.5,1.4,3.2,2.5,5,3.4c1.5,0.8,3.1,1.6,4.7,2.3c1.7,0.7,3.5,1.2,5.3,1.7c1.3,0.3,2.6,0.6,3.9,0.7
			c1.5,0.1,3.1,0.1,4.6,0.1c2,0,4.1,0,6.1,0c1.1,0,2.1,0,3.2,0c0.2,0,0.3-0.1,0.3-0.3c0-0.1,0-0.2,0-0.3c0-17.7,0-35.4,0-53.1
			c0-0.1,0-0.2,0-0.4c-4.9,0-9.8,0-14.8,0c0,0.1,0,0.2,0,0.3c0,5.7,0,11.3,0,17c0,0.1,0,0.1,0,0.2c0,0.1-0.1,0.2-0.1,0.3
			c-0.1-0.1-0.2-0.1-0.2-0.2c-0.2-0.4-0.5-0.9-0.7-1.3c-1.6-3-3.5-5.7-5.8-8c-1.4-1.4-2.8-2.7-4.3-3.9c-2.4-1.9-4.9-3.5-7.6-4.8
			c-1.8-0.8-3.6-1.6-5.5-2.2c-2.4-0.8-4.8-1.4-7.3-1.8c-1.9-0.3-3.9-0.6-5.9-0.6c-0.9,0-1.8,0-2.7,0c-0.1-0.4,0.2-0.4,0.3-0.4
			c0.6-0.1,1.2-0.1,1.8-0.2c2.2-0.2,4.4-0.3,6.7-0.2c1.3,0,2.5,0.2,3.8,0.3c1.1,0.1,2.2,0.2,3.3,0.4c1.2,0.2,2.4,0.5,3.6,0.8
			c1.4,0.4,2.8,0.8,4.2,1.3c3.1,1.1,6.1,2.7,8.8,4.6c0.5,0.4,1.1,0.8,1.7,1.2c0-2.6,0-5.2,0-7.8c8.9,0,17.8,0,26.7,0
			C-122,375.5-122,397.1-122,418.7z"/>
		<path id="XMLID_4_" class="st1" d="M-217,410c0,2.6,0,5.3,0,7.9c-0.1,0-0.2,0-0.4,0c-8.6,0-17.1,0-25.7,0c-0.6,0-0.6,0-0.6-0.6
			c0-21.1,0-42.2,0-63.3c0-0.3,0-0.6,0-1c0.3,0,0.6,0,1,0c5.9,0,11.8,0,17.7,0c1.6,0,3.1,0.2,4.7,0.4c2.5,0.3,4.8,1,7.1,2
			c1.3,0.5,2.6,1.2,3.9,1.8c2.1,1,4,2.2,5.9,3.5c1.5,1.1,3,2.2,4.3,3.6c0.5,0.6,1,1.2,1.5,1.7c-1.8,1-3.6,1.9-5.4,2.9
			c-1.3-1.9-3.1-3.1-5-4.3c-2.1-1.4-4.4-2.5-6.7-3.4c-2.6-1.1-5.3-1.9-8.2-2.2c-1.5-0.2-2.9-0.2-4.4-0.2c-2.7,0-5.4,0-8.1,0
			c-0.8,0-1.6,0-2.5,0c0,18.1,0,36.1,0,54.2c0.2,0,0.5,0,0.7,0c4.5,0,9.1,0,13.6,0c0.4,0,0.5-0.1,0.5-0.5c0-5.4,0-10.7,0-16.1
			c0-0.4,0-0.8,0-1.3c0.2,0.1,0.3,0.2,0.3,0.3c0.7,1.2,1.3,2.5,2.1,3.7c1.2,1.8,2.4,3.5,3.9,5c0.8,0.9,1.7,1.7,2.5,2.5
			c1.4,1.3,2.9,2.5,4.5,3.6c2.6,1.8,5.4,3.3,8.4,4.4c1.8,0.7,3.6,1.3,5.4,1.7c1.9,0.5,3.8,0.8,5.7,1.1c1.1,0.2,2.2,0.3,3.3,0.3
			c1.3,0.1,2.5,0.1,3.8,0.2c0.1,0,0.2,0.1,0.2,0.1c-0.1,0-0.1,0.1-0.2,0.1c-1.5,0.1-3,0.3-4.4,0.4c-1,0.1-2,0.1-3,0.1
			c-1.9-0.1-3.7-0.2-5.6-0.4c-1.5-0.2-3-0.5-4.6-0.8c-2.1-0.4-4.1-1-6.1-1.8c-2.2-0.9-4.4-1.8-6.5-3.1c-1.1-0.7-2.2-1.4-3.3-2.2
			C-216.6,410.3-216.8,410.1-217,410z M-236.1,358.5C-236.1,358.5-236.1,358.6-236.1,358.5c0.5,0,1,0,1.5,0c0,0,0,0,0,0
			C-235.1,358.5-235.6,358.5-236.1,358.5z"/>
		<path id="XMLID_3_" class="st1" d="M-156.4,375.2l-6.1,3.5c0,0-5.4-9.4-20.6-9.4c-11.1,0-20.3,6.4-21.9,14.1
			c-1.5,7.6,6.5,19,21.5,19c15,0,18.1-6.8,21-9.8c5.5,3.1,5.9,3.4,5.9,3.4s-7.8,12.2-26.7,12.2s-29.7-13.1-29.7-21.9
			c0-10.2,9.8-23.1,29.4-23.1C-163.7,363-156.4,375.2-156.4,375.2z"/>
	</g>
</g>
</svg>
